# xmcd
# Track frame offsets:
# 150
# 20906
# 36977
# 54605
# 73083
# 88362
# 102666
# 130324
# 144506
# 161564
# 202832
#
# Disc length: 3037 seconds
# Revision: 0
# Processed by: cddbd v1.5.1PL0 Copyright (c) Steve Scherf et al.
# Submitted via: VisiTrax 2.9.10.228 - For more info visit www.synapsa.com
#
DISCID=a80bdb0b
DTITLE=Pyeng Threadgill - Sweet Home: The Music of Robert Johnson
DYEAR=2004
DGENRE=
TTITLE0=Love in Vain Blues
TTITLE1=Phonograph Blues
TTITLE2=Last Fair Deal Gone Down
TTITLE3=Milk Cow's Calf Blues
TTITLE4=When You Got a Good Friend
TTITLE5=I Believe I'll Dust My Broom
TTITLE6=Dead Shrimp
TTITLE7=They're Red Hot
TTITLE8=Sweet Home Chicago
TTITLE9=Come On In My Kitchen
TTITLE10=Ramblin' On My Mind
EXTD=
EXTT0=
EXTT1=
EXTT2=
EXTT3=
EXTT4=
EXTT5=
EXTT6=
EXTT7=
EXTT8=
EXTT9=
EXTT10=
PLAYORDER=
